HIERARCHY
ROOT root
{
	OFFSET 0.000000 0.000000 0.000000
	CHANNELS 6 Xposition Yposition Zposition Zrotation Yrotation Xrotation
	JOINT lhip
	{
		OFFSET 0.058581 -0.082280 -0.017664
		CHANNELS 3 Zrotation Yrotation Xrotation
		JOINT lknee
		{
			OFFSET 0.043451 -0.386469 0.008037
			CHANNELS 3 Zrotation Yrotation Xrotation
			JOINT lankle
			{
				OFFSET -0.014790 -0.426874 -0.037428
				CHANNELS 3 Zrotation Yrotation Xrotation
				JOINT ltoe
				{
					OFFSET 0.041054 -0.060286 0.122042
					CHANNELS 3 Zrotation Yrotation Xrotation
					End Site
					{
						OFFSET 0.000000 0.000000 0.000000
					}
				}
			}
		}
	}
	JOINT rhip
	{
		OFFSET -0.060310 -0.090513 -0.013543
		CHANNELS 3 Zrotation Yrotation Xrotation
		JOINT rknee
		{
			OFFSET -0.043257 -0.383688 -0.004843
			CHANNELS 3 Zrotation Yrotation Xrotation
			JOINT rankle
			{
				OFFSET 0.019056 -0.420046 -0.034562
				CHANNELS 3 Zrotation Yrotation Xrotation
				JOINT rtoe
				{
					OFFSET -0.034840 -0.062106 0.130323
					CHANNELS 3 Zrotation Yrotation Xrotation
					End Site
					{
						OFFSET 0.000000 0.000000 0.000000
					}
				}
			}
		}
	}
	JOINT lowerback
	{
		OFFSET 0.004439 0.124404 -0.038385
		CHANNELS 3 Zrotation Yrotation Xrotation
		JOINT upperback
		{
			OFFSET 0.004488 0.137956 0.026820
			CHANNELS 3 Zrotation Yrotation Xrotation
			JOINT chest
			{
				OFFSET -0.002265 0.056032 0.002855
				CHANNELS 3 Zrotation Yrotation Xrotation
				JOINT lowerneck
				{
					OFFSET -0.013390 0.211636 -0.033468
					CHANNELS 3 Zrotation Yrotation Xrotation
					JOINT upperneck
					{
						OFFSET 0.010113 0.088937 0.050410
						CHANNELS 3 Zrotation Yrotation Xrotation
						End Site
						{
							OFFSET 0.000000 0.000000 0.000000
						}
					}
				}
				JOINT lclavicle
				{
					OFFSET 0.071702 0.114000 -0.018898
					CHANNELS 3 Zrotation Yrotation Xrotation
					JOINT lshoulder
					{
						OFFSET 0.122921 0.045205 -0.019046
						CHANNELS 3 Zrotation Yrotation Xrotation
						JOINT lelbow
						{
							OFFSET 0.255332 -0.015649 -0.022946
							CHANNELS 3 Zrotation Yrotation Xrotation
							JOINT lwrist
							{
								OFFSET 0.265709 0.012698 -0.007375
								CHANNELS 3 Zrotation Yrotation Xrotation
								End Site
								{
									OFFSET 0.000000 0.000000 0.000000
								}
							}
						}
					}
				}
				JOINT rclavicle
				{
					OFFSET -0.082954 0.112472 -0.023707
					CHANNELS 3 Zrotation Yrotation Xrotation
					JOINT rshoulder
					{
						OFFSET -0.113228 0.046853 -0.008472
						CHANNELS 3 Zrotation Yrotation Xrotation
						JOINT relbow
						{
							OFFSET -0.260127 -0.014369 -0.031269
							CHANNELS 3 Zrotation Yrotation Xrotation
							JOINT rwrist
							{
								OFFSET -0.269108 0.006794 -0.006027
								CHANNELS 3 Zrotation Yrotation Xrotation
								End Site
								{
									OFFSET 0.000000 0.000000 0.000000
								}
							}
						}
					}
				}
			}
		}
	}
}
MOTION
Frames: 8
Frame Time: 0.033333
0.464835 0.486286 0.657670 90.697747 2.140689 152.292771 22.168374 5.740807 -3.442619 -6.595444 3.757867 121.835473 4.663490 9.713946 -19.483076 0.000000 -0.000000 0.000000 -24.812147 -7.541660 4.926520 4.254376 4.614249 126.844228 -5.143648 -10.684974 -18.182763 0.000000 -0.000000 0.000000 -0.831916 0.592521 3.743178 3.007104 -6.405044 -3.849629 1.804508 2.141505 -16.314616 -5.790897 -12.749948 -7.139265 5.936760 5.981508 -1.913525 33.639755 -34.944998 -23.288562 -35.385138 -44.663462 -19.488358 85.119542 -58.531597 -74.021132 45.530529 11.216848 -28.591486 -38.330209 34.620968 -27.540860 50.902107 52.003705 -5.926165 -92.145841 50.781390 -96.103660 -34.503332 -5.596490 -40.658716 
0.467599 0.486320 0.657099 90.641859 2.063336 153.167106 24.171508 4.698398 -2.853978 -6.305759 1.272052 118.959155 4.774946 14.113903 -19.561151 0.000000 -0.000000 0.000000 -27.034904 -6.953746 4.641030 3.420122 6.319609 120.344448 -5.013289 -15.175653 -18.419938 0.000000 -0.000000 0.000000 -0.397508 0.523786 2.242995 2.369335 -6.891285 -1.613821 0.940214 2.349302 -17.623100 -6.338733 -11.770090 -2.609485 5.528022 6.014395 -0.473923 37.732475 -37.662860 -25.600417 -19.590140 -41.736419 -28.717774 56.021186 -50.690531 -53.995976 43.784713 9.056880 -26.474792 -40.509881 37.001391 -29.149923 32.277238 52.492991 -20.450241 -67.745865 44.195760 -81.314132 -33.518228 -4.975307 -38.153296 
0.471512 0.487345 0.657940 90.811432 2.015665 154.576271 26.235297 4.632359 -3.258781 -6.432273 -1.739216 111.470136 3.940028 17.227764 -19.821057 0.000000 -0.000000 0.000000 -28.798454 -7.345514 3.457887 2.595960 7.266436 110.748889 -3.618124 -17.936133 -18.710828 0.000000 -0.000000 0.000000 -1.083958 1.814331 1.121277 2.138845 -6.498841 -0.488410 1.303327 2.205171 -17.789601 -7.078254 -11.178858 3.748705 4.988750 5.071247 -2.288176 41.621102 -42.091350 -26.798340 -3.001544 -36.581789 -37.024581 34.313496 -38.724956 -42.198343 40.774711 4.635140 -23.012648 -42.624366 38.526743 -29.892966 13.020465 47.377034 -34.331239 -45.260334 35.646147 -70.130388 -31.283784 -3.149734 -37.278604 
0.476375 0.490501 0.659984 90.915698 1.848705 156.446423 27.912355 4.858576 -4.040453 -5.345949 -4.334053 100.138626 3.216175 20.215220 -19.617530 0.000000 -0.000000 0.000000 -30.462277 -8.366976 1.924130 2.048455 7.680181 98.415641 -1.717333 -19.049364 -17.778342 0.000000 -0.000000 0.000000 -1.438545 2.674703 2.271351 1.595822 -5.667969 -3.392461 2.236788 1.955649 -15.845406 -8.514221 -10.810595 9.150807 5.040123 3.861908 -4.271371 44.882603 -42.748081 -27.940724 8.403669 -32.830264 -41.832151 19.772829 -25.990555 -35.204385 34.789130 1.184566 -21.118628 -45.723238 37.386099 -30.325547 -0.045739 41.626090 -42.152140 -26.639907 25.335734 -61.037302 -26.978294 -1.766365 -35.975742 
0.480936 0.494025 0.660516 90.914939 1.637044 158.446586 29.142485 5.054037 -4.484230 -3.529139 -5.785229 85.805003 2.501866 22.118314 -18.671912 0.000000 -0.000000 0.000000 -31.727574 -9.504113 0.632097 0.860332 8.114751 83.270629 0.437670 -19.943940 -13.587536 0.000000 -0.000000 0.000000 -0.986770 2.755755 4.629568 0.598880 -5.385648 -5.088938 2.720344 1.783709 -14.328139 -9.611839 -10.237041 10.381846 6.208802 2.735241 -6.262064 47.574600 -38.037553 -30.759125 14.743201 -32.539522 -43.790005 11.122783 -14.814042 -29.219527 29.077328 -0.158378 -20.625069 -49.406548 33.124224 -31.889828 -7.877819 38.045642 -44.683957 -13.753650 14.865805 -52.475758 -21.240888 -2.025702 -32.955624 
0.485359 0.496644 0.659826 90.851814 1.809638 161.573671 29.677305 5.018280 -5.106385 -2.009676 -5.768939 69.500990 1.608948 22.405650 -16.325431 0.000000 -0.000000 0.000000 -31.483406 -9.931486 -1.132133 -1.448588 8.198559 65.261510 2.856720 -21.166728 -5.766597 0.000000 -0.000000 0.000000 -0.907593 2.983788 5.438741 -0.058792 -5.090177 -5.907159 3.214830 1.699013 -12.172601 -9.940683 -9.943767 10.506364 7.095716 2.051555 -8.064893 49.312634 -33.027712 -33.635843 18.282244 -32.683043 -44.497310 7.017717 -6.583906 -22.851493 23.136971 -2.712231 -17.512286 -51.779790 28.270483 -32.653020 -11.911962 35.549406 -44.114546 -7.167598 7.104482 -44.565529 -14.815802 -0.756984 -29.573427 
0.491441 0.498102 0.659026 90.640443 1.990339 165.061671 28.867047 3.964656 -5.344142 -1.132249 -5.881708 52.289916 0.128783 21.695652 -11.644800 0.000000 -0.000000 0.000000 -30.331715 -9.368999 -2.067741 -3.867737 7.976835 45.372775 4.836412 -21.367863 1.622474 0.000000 -0.000000 0.000000 -1.129745 3.211831 4.923704 -0.493144 -5.229734 -5.233521 3.644443 1.926010 -9.847629 -10.157959 -9.145132 10.715784 8.057297 0.719123 -11.483983 51.930577 -27.315929 -34.901707 16.410116 -31.637920 -42.382324 7.109692 -2.825629 -14.745819 16.689574 -4.997644 -12.971351 -53.262059 23.813172 -31.922855 -12.211149 33.109724 -42.327606 -6.016669 4.141304 -34.845538 -8.304480 1.542583 -24.619230 
0.498652 0.498016 0.659857 90.518117 2.285159 168.727343 27.421443 2.051470 -5.543169 -1.308912 -8.386098 36.090848 -1.995060 19.708088 -5.360801 0.000000 -0.000000 0.000000 -28.821744 -8.072645 -3.022422 -4.488965 8.969582 26.917914 7.252000 -17.275734 5.634503 0.000000 -0.000000 0.000000 -1.040325 3.101395 3.709560 -0.901758 -5.601806 -3.623117 3.768332 2.364430 -7.457779 -10.027795 -7.644363 10.790377 9.641325 -1.044922 -17.536842 54.816922 -20.396704 -34.952217 9.548128 -30.241407 -37.640764 9.214122 -3.210215 -7.301816 12.193693 -5.448195 -10.073426 -54.224410 19.433148 -30.624106 -9.415636 30.575735 -39.875895 -7.715423 4.641966 -23.506383 -1.894340 2.773980 -18.387138 
